<?xml version="1.0" encoding="utf-8" standalone="no"?>
<!DOCTYPE svg PUBLIC "-//W3C//DTD SVG 1.1//EN"
  "http://www.w3.org/Graphics/SVG/1.1/DTD/svg11.dtd">
<svg xmlns:xlink="http://www.w3.org/1999/xlink" width="432pt" height="144pt" viewBox="0 0 432 144" xmlns="http://www.w3.org/2000/svg" version="1.1">
 <metadata>
  <rdf:RDF xmlns:dc="http://purl.org/dc/elements/1.1/" xmlns:cc="http://creativecommons.org/ns#" xmlns:rdf="http://www.w3.org/1999/02/22-rdf-syntax-ns#">
   <cc:Work>
    <dc:type rdf:resource="http://purl.org/dc/dcmitype/StillImage"/>
    <dc:date>2025-04-26T01:59:04.370647</dc:date>
    <dc:format>image/svg+xml</dc:format>
    <dc:creator>
     <cc:Agent>
      <dc:title>Matplotlib v3.10.0, https://matplotlib.org/</dc:title>
     </cc:Agent>
    </dc:creator>
   </cc:Work>
  </rdf:RDF>
 </metadata>
 <defs>
  <style type="text/css">*{stroke-linejoin: round; stroke-linecap: butt}</style>
 </defs>
 <g id="figure_1">
  <g id="patch_1">
   <path d="M 0 144 
L 432 144 
L 432 0 
L 0 0 
z
" style="fill: #ffffff"/>
  </g>
  <g id="axes_1">
   <g id="patch_2">
    <path d="M 34.56 108 
L 161.372903 108 
L 161.372903 7.2 
L 34.56 7.2 
z
" style="fill: #ffffff"/>
   </g>
   <g id="matplotlib.axis_1">
    <g id="xtick_1">
     <g id="line2d_1">
      <defs>
       <path id="m0b98c5d847" d="M 0 0 
L 0 -3.5 
" style="stroke: #000000; stroke-width: 0.8"/>
      </defs>
      <g>
       <use xlink:href="#m0b98c5d847" x="34.56" y="108" style="stroke: #000000; stroke-width: 0.8"/>
      </g>
     </g>
    </g>
    <g id="xtick_2">
     <g id="line2d_2">
      <g>
       <use xlink:href="#m0b98c5d847" x="97.966452" y="108" style="stroke: #000000; stroke-width: 0.8"/>
      </g>
     </g>
     <g id="text_1">
      <text style="font-size: 14px; font-family: 'DejaVu Sans', 'Bitstream Vera Sans', 'Computer Modern Sans Serif', 'Lucida Grande', 'Verdana', 'Geneva', 'Lucid', 'Arial', 'Helvetica', 'Avant Garde', sans-serif; text-anchor: middle" x="97.966452" y="122.137812" transform="rotate(-0 97.966452 122.137812)">0.5</text>
     </g>
    </g>
    <g id="xtick_3">
     <g id="line2d_3">
      <g>
       <use xlink:href="#m0b98c5d847" x="161.372903" y="108" style="stroke: #000000; stroke-width: 0.8"/>
      </g>
     </g>
     <g id="text_2">
      <text style="font-size: 14px; font-family: 'DejaVu Sans', 'Bitstream Vera Sans', 'Computer Modern Sans Serif', 'Lucida Grande', 'Verdana', 'Geneva', 'Lucid', 'Arial', 'Helvetica', 'Avant Garde', sans-serif; text-anchor: middle" x="161.372903" y="122.137812" transform="rotate(-0 161.372903 122.137812)">1</text>
     </g>
    </g>
    <g id="text_3">
     <text style="font-size: 14px; font-family: 'DejaVu Sans', 'Bitstream Vera Sans', 'Computer Modern Sans Serif', 'Lucida Grande', 'Verdana', 'Geneva', 'Lucid', 'Arial', 'Helvetica', 'Avant Garde', sans-serif; text-anchor: middle" x="97.966452" y="139.687187" transform="rotate(-0 97.966452 139.687187)">Fidelity</text>
    </g>
   </g>
   <g id="matplotlib.axis_2">
    <g id="ytick_1">
     <g id="line2d_4">
      <defs>
       <path id="m99333eca68" d="M 0 0 
L 3.5 0 
" style="stroke: #000000; stroke-width: 0.8"/>
      </defs>
      <g>
       <use xlink:href="#m99333eca68" x="34.56" y="108" style="stroke: #000000; stroke-width: 0.8"/>
      </g>
     </g>
     <g id="line2d_5">
      <defs>
       <path id="mfc562b3fe2" d="M 0 0 
L -3.5 0 
" style="stroke: #000000; stroke-width: 0.8"/>
      </defs>
      <g>
       <use xlink:href="#mfc562b3fe2" x="161.372903" y="108" style="stroke: #000000; stroke-width: 0.8"/>
      </g>
     </g>
     <g id="text_4">
      <text style="font-size: 14px; font-family: 'DejaVu Sans', 'Bitstream Vera Sans', 'Computer Modern Sans Serif', 'Lucida Grande', 'Verdana', 'Geneva', 'Lucid', 'Arial', 'Helvetica', 'Avant Garde', sans-serif; text-anchor: end" x="31.06" y="113.318906" transform="rotate(-0 31.06 113.318906)">0</text>
     </g>
    </g>
    <g id="ytick_2">
     <g id="line2d_6">
      <g>
       <use xlink:href="#m99333eca68" x="34.56" y="74.4" style="stroke: #000000; stroke-width: 0.8"/>
      </g>
     </g>
     <g id="line2d_7">
      <g>
       <use xlink:href="#mfc562b3fe2" x="161.372903" y="74.4" style="stroke: #000000; stroke-width: 0.8"/>
      </g>
     </g>
     <g id="text_5">
      <text style="font-size: 14px; font-family: 'DejaVu Sans', 'Bitstream Vera Sans', 'Computer Modern Sans Serif', 'Lucida Grande', 'Verdana', 'Geneva', 'Lucid', 'Arial', 'Helvetica', 'Avant Garde', sans-serif; text-anchor: end" x="31.06" y="79.718906" transform="rotate(-0 31.06 79.718906)">2</text>
     </g>
    </g>
    <g id="ytick_3">
     <g id="line2d_8">
      <g>
       <use xlink:href="#m99333eca68" x="34.56" y="40.8" style="stroke: #000000; stroke-width: 0.8"/>
      </g>
     </g>
     <g id="line2d_9">
      <g>
       <use xlink:href="#mfc562b3fe2" x="161.372903" y="40.8" style="stroke: #000000; stroke-width: 0.8"/>
      </g>
     </g>
     <g id="text_6">
      <text style="font-size: 14px; font-family: 'DejaVu Sans', 'Bitstream Vera Sans', 'Computer Modern Sans Serif', 'Lucida Grande', 'Verdana', 'Geneva', 'Lucid', 'Arial', 'Helvetica', 'Avant Garde', sans-serif; text-anchor: end" x="31.06" y="46.118906" transform="rotate(-0 31.06 46.118906)">4</text>
     </g>
    </g>
    <g id="ytick_4">
     <g id="line2d_10">
      <g>
       <use xlink:href="#m99333eca68" x="34.56" y="7.2" style="stroke: #000000; stroke-width: 0.8"/>
      </g>
     </g>
     <g id="line2d_11">
      <g>
       <use xlink:href="#mfc562b3fe2" x="161.372903" y="7.2" style="stroke: #000000; stroke-width: 0.8"/>
      </g>
     </g>
     <g id="text_7">
      <text style="font-size: 14px; font-family: 'DejaVu Sans', 'Bitstream Vera Sans', 'Computer Modern Sans Serif', 'Lucida Grande', 'Verdana', 'Geneva', 'Lucid', 'Arial', 'Helvetica', 'Avant Garde', sans-serif; text-anchor: end" x="31.06" y="12.518906" transform="rotate(-0 31.06 12.518906)">6</text>
     </g>
    </g>
    <g id="text_8">
     <text style="font-size: 14px; font-family: 'DejaVu Sans', 'Bitstream Vera Sans', 'Computer Modern Sans Serif', 'Lucida Grande', 'Verdana', 'Geneva', 'Lucid', 'Arial', 'Helvetica', 'Avant Garde', sans-serif; text-anchor: middle" x="15.240938" y="57.6" transform="rotate(-90 15.240938 57.6)">Density</text>
    </g>
   </g>
   <g id="line2d_12">
    <path d="M 34.56 56.733351 
L 35.834502 56.856716 
L 37.109003 57.382307 
L 38.383505 58.297388 
L 39.658006 59.580243 
L 40.932508 61.201033 
L 42.207009 63.122946 
L 44.118762 66.476524 
L 46.667765 71.576827 
L 54.314774 87.613354 
L 56.863777 92.202678 
L 58.775529 95.208454 
L 60.687282 97.812682 
L 62.599034 100.01605 
L 64.510786 101.837665 
L 66.422538 103.309778 
L 68.334291 104.472718 
L 70.246043 105.370465 
L 72.157795 106.04709 
L 74.706799 106.676557 
L 77.255802 107.072934 
L 80.442055 107.346465 
L 84.902811 107.48951 
L 93.824322 107.485037 
L 121.863355 107.253773 
L 127.598612 106.890186 
L 132.059368 106.40206 
L 136.520123 105.682121 
L 140.980879 104.719214 
L 147.990637 102.906644 
L 152.451392 101.851723 
L 155.637646 101.312427 
L 158.186649 101.072307 
L 160.735652 101.030951 
L 161.372903 101.052997 
L 161.372903 101.052997 
" clip-path="url(#peedf218ee8)" style="fill: none; stroke: #ed9d2c; stroke-width: 3; stroke-linecap: square"/>
   </g>
   <g id="line2d_13">
    <path d="M 34.56 103.091988 
L 37.109003 102.988668 
L 39.658006 103.078845 
L 42.84426 103.42906 
L 47.305015 104.206108 
L 55.589275 105.70631 
L 60.050031 106.261839 
L 65.785288 106.718417 
L 77.893052 107.35432 
L 89.363566 107.811505 
L 99.559579 107.968462 
L 115.490848 107.961177 
L 121.226105 107.779201 
L 124.412359 107.472038 
L 126.961362 106.992791 
L 128.873114 106.41367 
L 130.784866 105.565541 
L 132.059368 104.807425 
L 133.333869 103.861334 
L 134.608371 102.696587 
L 135.882872 101.28228 
L 137.157374 99.588849 
L 138.431876 97.589969 
L 139.706377 95.264743 
L 140.980879 92.600073 
L 142.892631 87.963662 
L 144.804383 82.605034 
L 147.353386 74.558895 
L 153.088643 55.624265 
L 155.000396 50.290327 
L 156.274897 47.329349 
L 157.549399 44.958429 
L 158.8239 43.257172 
L 159.461151 42.676872 
L 160.098402 42.284075 
L 160.735652 42.082247 
L 161.372903 42.073193 
L 161.372903 42.073193 
" clip-path="url(#peedf218ee8)" style="fill: none; stroke: #de461c; stroke-width: 1.5; stroke-linecap: square"/>
   </g>
   <g id="patch_3">
    <path d="M 34.56 108 
L 34.56 7.2 
" style="fill: none; stroke: #000000; stroke-width: 0.8; stroke-linejoin: miter; stroke-linecap: square"/>
   </g>
   <g id="patch_4">
    <path d="M 161.372903 108 
L 161.372903 7.2 
" style="fill: none; stroke: #000000; stroke-width: 0.8; stroke-linejoin: miter; stroke-linecap: square"/>
   </g>
   <g id="patch_5">
    <path d="M 34.56 108 
L 161.372903 108 
" style="fill: none; stroke: #000000; stroke-width: 0.8; stroke-linejoin: miter; stroke-linecap: square"/>
   </g>
   <g id="patch_6">
    <path d="M 34.56 7.2 
L 161.372903 7.2 
" style="fill: none; stroke: #000000; stroke-width: 0.8; stroke-linejoin: miter; stroke-linecap: square"/>
   </g>
   <g id="legend_1">
    <g id="line2d_14">
     <path d="M 51.332903 25.537813 
L 65.332903 25.537813 
L 79.332903 25.537813 
" style="fill: none; stroke: #ed9d2c; stroke-width: 3; stroke-linecap: square"/>
    </g>
    <g id="text_9">
     <!-- $\mathcal{U}$ -->
     <g transform="translate(86.332903 30.437813)">
      <text>
       <tspan x="0" y="-0.59375" style="font-style: italic; font-size: 14px; font-family: 'STIXNonUnicode'"></tspan>
      </text>
     </g>
    </g>
    <g id="line2d_15">
     <path d="M 104.812903 25.537813 
L 118.812903 25.537813 
L 132.812903 25.537813 
" style="fill: none; stroke: #de461c; stroke-width: 1.5; stroke-linecap: square"/>
    </g>
    <g id="text_10">
     <!-- $\mathcal{V}$ -->
     <g transform="translate(139.812903 30.437813)">
      <text>
       <tspan x="0" y="-0.515625" style="font-style: italic; font-size: 14px; font-family: 'STIXNonUnicode'"></tspan>
      </text>
     </g>
    </g>
   </g>
  </g>
  <g id="axes_2">
   <g id="patch_7">
    <path d="M 167.713548 108 
L 294.526452 108 
L 294.526452 7.2 
L 167.713548 7.2 
z
" style="fill: #ffffff"/>
   </g>
   <g id="FillBetweenPolyCollection_1">
    <defs>
     <path id="m43def07922" d="M 167.713548 -40.815975 
L 167.713548 -40.108615 
L 168.350799 -40.177948 
L 168.98805 -40.237853 
L 169.625301 -40.287974 
L 170.262551 -40.328047 
L 170.899802 -40.357903 
L 171.537053 -40.377465 
L 172.174304 -40.386754 
L 172.811555 -40.385884 
L 173.448805 -40.375059 
L 174.086056 -40.354572 
L 174.723307 -40.324795 
L 175.360558 -40.286174 
L 175.997808 -40.239224 
L 176.635059 -40.184515 
L 177.27231 -40.122667 
L 177.909561 -40.054338 
L 178.546811 -39.980217 
L 179.184062 -39.901009 
L 179.821313 -39.817433 
L 180.458564 -39.730205 
L 181.095815 -39.640034 
L 181.733065 -39.547612 
L 182.370316 -39.453607 
L 183.007567 -39.358656 
L 183.644818 -39.263361 
L 184.282068 -39.168279 
L 184.919319 -39.073927 
L 185.55657 -38.980771 
L 186.193821 -38.889228 
L 186.831071 -38.799663 
L 187.468322 -38.712391 
L 188.105573 -38.627677 
L 188.742824 -38.545735 
L 189.380075 -38.466732 
L 190.017325 -38.390792 
L 190.654576 -38.317993 
L 191.291827 -38.248378 
L 191.929078 -38.181954 
L 192.566328 -38.118694 
L 193.203579 -38.058547 
L 193.84083 -38.001437 
L 194.478081 -37.947271 
L 195.115331 -37.89594 
L 195.752582 -37.847322 
L 196.389833 -37.801292 
L 197.027084 -37.757715 
L 197.664335 -37.71646 
L 198.301585 -37.677391 
L 198.938836 -37.640379 
L 199.576087 -37.605298 
L 200.213338 -37.572024 
L 200.850588 -37.540443 
L 201.487839 -37.510443 
L 202.12509 -37.481921 
L 202.762341 -37.454778 
L 203.399592 -37.428923 
L 204.036842 -37.40427 
L 204.674093 -37.38074 
L 205.311344 -37.358258 
L 205.948595 -37.336757 
L 206.585845 -37.316173 
L 207.223096 -37.296449 
L 207.860347 -37.277533 
L 208.497598 -37.259377 
L 209.134848 -37.241939 
L 209.772099 -37.22518 
L 210.40935 -37.209067 
L 211.046601 -37.193571 
L 211.683852 -37.178668 
L 212.321102 -37.164337 
L 212.958353 -37.150561 
L 213.595604 -37.137328 
L 214.232855 -37.124628 
L 214.870105 -37.112454 
L 215.507356 -37.100801 
L 216.144607 -37.089665 
L 216.781858 -37.079045 
L 217.419108 -37.068936 
L 218.056359 -37.059338 
L 218.69361 -37.050244 
L 219.330861 -37.04165 
L 219.968112 -37.03355 
L 220.605362 -37.025935 
L 221.242613 -37.018796 
L 221.879864 -37.012123 
L 222.517115 -37.005903 
L 223.154365 -37.000127 
L 223.791616 -36.994783 
L 224.428867 -36.989859 
L 225.066118 -36.985347 
L 225.703368 -36.981239 
L 226.340619 -36.977527 
L 226.97787 -36.974208 
L 227.615121 -36.97128 
L 228.252372 -36.968745 
L 228.889622 -36.966607 
L 229.526873 -36.964875 
L 230.164124 -36.963561 
L 230.801375 -36.962679 
L 231.438625 -36.962252 
L 232.075876 -36.962302 
L 232.713127 -36.962859 
L 233.350378 -36.963956 
L 233.987628 -36.96563 
L 234.624879 -36.96792 
L 235.26213 -36.970873 
L 235.899381 -36.974533 
L 236.536632 -36.97895 
L 237.173882 -36.984177 
L 237.811133 -36.990265 
L 238.448384 -36.997268 
L 239.085635 -37.005242 
L 239.722885 -37.014243 
L 240.360136 -37.024328 
L 240.997387 -37.035556 
L 241.634638 -37.047988 
L 242.271888 -37.061689 
L 242.909139 -37.076726 
L 243.54639 -37.093171 
L 244.183641 -37.111101 
L 244.820892 -37.130601 
L 245.458142 -37.151765 
L 246.095393 -37.174692 
L 246.732644 -37.199497 
L 247.369895 -37.226303 
L 248.007145 -37.25525 
L 248.644396 -37.28649 
L 249.281647 -37.320194 
L 249.918898 -37.356553 
L 250.556148 -37.395779 
L 251.193399 -37.438109 
L 251.83065 -37.48381 
L 252.467901 -37.533182 
L 253.105152 -37.586566 
L 253.742402 -37.644347 
L 254.379653 -37.706965 
L 255.016904 -37.774923 
L 255.654155 -37.848794 
L 256.291405 -37.929236 
L 256.928656 -38.016999 
L 257.565907 -38.11294 
L 258.203158 -38.218033 
L 258.840408 -38.333383 
L 259.477659 -38.460237 
L 260.11491 -38.600002 
L 260.752161 -38.754253 
L 261.389412 -38.924749 
L 262.026662 -39.11345 
L 262.663913 -39.322522 
L 263.301164 -39.554357 
L 263.938415 -39.811581 
L 264.575665 -40.09706 
L 265.212916 -40.413909 
L 265.850167 -40.765495 
L 266.487418 -41.155433 
L 267.124669 -41.587581 
L 267.761919 -42.066024 
L 268.39917 -42.595059 
L 269.036421 -43.17916 
L 269.673672 -43.822945 
L 270.310922 -44.531129 
L 270.948173 -45.30846 
L 271.585424 -46.159659 
L 272.222675 -47.089328 
L 272.859925 -48.101867 
L 273.497176 -49.201361 
L 274.134427 -50.391465 
L 274.771678 -51.675273 
L 275.408929 -53.05517 
L 276.046179 -54.532666 
L 276.68343 -56.108194 
L 277.320681 -57.780847 
L 277.957932 -59.547959 
L 278.595182 -61.404332 
L 279.232433 -63.340524 
L 279.869684 -65.33928 
L 280.506935 -67.372653 
L 281.144185 -69.415593 
L 281.781436 -71.465364 
L 282.418687 -73.526539 
L 283.055938 -75.596778 
L 283.693189 -77.667748 
L 284.330439 -79.727766 
L 284.96769 -81.763209 
L 285.604941 -83.75923 
L 286.242192 -85.700191 
L 286.879442 -87.569983 
L 287.516693 -89.352322 
L 288.153944 -91.031018 
L 288.791195 -92.590248 
L 289.428445 -94.014824 
L 290.065696 -95.290454 
L 290.702947 -96.403994 
L 291.340198 -97.343686 
L 291.977449 -98.099371 
L 292.614699 -98.66268 
L 293.25195 -99.027194 
L 293.889201 -99.188565 
L 294.526452 -99.144606 
L 294.526452 -104.119919 
L 294.526452 -104.119919 
L 293.889201 -104.170897 
L 293.25195 -103.978622 
L 292.614699 -103.545869 
L 291.977449 -102.878156 
L 291.340198 -101.98363 
L 290.702947 -100.872905 
L 290.065696 -99.558849 
L 289.428445 -98.056336 
L 288.791195 -96.381967 
L 288.153944 -94.55376 
L 287.516693 -92.590828 
L 286.879442 -90.513055 
L 286.242192 -88.340769 
L 285.604941 -86.09443 
L 284.96769 -83.794355 
L 284.330439 -81.46048 
L 283.693189 -79.112217 
L 283.055938 -76.768465 
L 282.418687 -74.447961 
L 281.781436 -72.170404 
L 281.144185 -69.95886 
L 280.506935 -67.840529 
L 279.869684 -65.832417 
L 279.232433 -63.9263 
L 278.595182 -62.108158 
L 277.957932 -60.371836 
L 277.320681 -58.716287 
L 276.68343 -57.142141 
L 276.046179 -55.650197 
L 275.408929 -54.240837 
L 274.771678 -52.913843 
L 274.134427 -51.668356 
L 273.497176 -50.502913 
L 272.859925 -49.415512 
L 272.222675 -48.403685 
L 271.585424 -47.464585 
L 270.948173 -46.595065 
L 270.310922 -45.791752 
L 269.673672 -45.051125 
L 269.036421 -44.369573 
L 268.39917 -43.743454 
L 267.761919 -43.169145 
L 267.124669 -42.643086 
L 266.487418 -42.161808 
L 265.850167 -41.721968 
L 265.212916 -41.320365 
L 264.575665 -40.953959 
L 263.938415 -40.619878 
L 263.301164 -40.315428 
L 262.663913 -40.038093 
L 262.026662 -39.785532 
L 261.389412 -39.55558 
L 260.752161 -39.346237 
L 260.11491 -39.155665 
L 259.477659 -38.982176 
L 258.840408 -38.824225 
L 258.203158 -38.680399 
L 257.565907 -38.549405 
L 256.928656 -38.430063 
L 256.291405 -38.321299 
L 255.654155 -38.222128 
L 255.016904 -38.131656 
L 254.379653 -38.049064 
L 253.742402 -37.973608 
L 253.105152 -37.904613 
L 252.467901 -37.841463 
L 251.83065 -37.783601 
L 251.193399 -37.730526 
L 250.556148 -37.681784 
L 249.918898 -37.636968 
L 249.281647 -37.595713 
L 248.644396 -37.557692 
L 248.007145 -37.522614 
L 247.369895 -37.490217 
L 246.732644 -37.460272 
L 246.095393 -37.432571 
L 245.458142 -37.406933 
L 244.820892 -37.383196 
L 244.183641 -37.361218 
L 243.54639 -37.340872 
L 242.909139 -37.322051 
L 242.271888 -37.304656 
L 241.634638 -37.288605 
L 240.997387 -37.273824 
L 240.360136 -37.260251 
L 239.722885 -37.247832 
L 239.085635 -37.236518 
L 238.448384 -37.226267 
L 237.811133 -37.217043 
L 237.173882 -37.208811 
L 236.536632 -37.201538 
L 235.899381 -37.195194 
L 235.26213 -37.189745 
L 234.624879 -37.185158 
L 233.987628 -37.181399 
L 233.350378 -37.17843 
L 232.713127 -37.176209 
L 232.075876 -37.174695 
L 231.438625 -37.173843 
L 230.801375 -37.173606 
L 230.164124 -37.173937 
L 229.526873 -37.174789 
L 228.889622 -37.176117 
L 228.252372 -37.177878 
L 227.615121 -37.180034 
L 226.97787 -37.182552 
L 226.340619 -37.185404 
L 225.703368 -37.18857 
L 225.066118 -37.192037 
L 224.428867 -37.195799 
L 223.791616 -37.199859 
L 223.154365 -37.204229 
L 222.517115 -37.208926 
L 221.879864 -37.213977 
L 221.242613 -37.219413 
L 220.605362 -37.225273 
L 219.968112 -37.231597 
L 219.330861 -37.238433 
L 218.69361 -37.245826 
L 218.056359 -37.253827 
L 217.419108 -37.262482 
L 216.781858 -37.271838 
L 216.144607 -37.281938 
L 215.507356 -37.292821 
L 214.870105 -37.30452 
L 214.232855 -37.317062 
L 213.595604 -37.330471 
L 212.958353 -37.344759 
L 212.321102 -37.359936 
L 211.683852 -37.376006 
L 211.046601 -37.392967 
L 210.40935 -37.410816 
L 209.772099 -37.429548 
L 209.134848 -37.44916 
L 208.497598 -37.469649 
L 207.860347 -37.491022 
L 207.223096 -37.513289 
L 206.585845 -37.536472 
L 205.948595 -37.560601 
L 205.311344 -37.585721 
L 204.674093 -37.61189 
L 204.036842 -37.639181 
L 203.399592 -37.667679 
L 202.762341 -37.697488 
L 202.12509 -37.728724 
L 201.487839 -37.761519 
L 200.850588 -37.796013 
L 200.213338 -37.832361 
L 199.576087 -37.870725 
L 198.938836 -37.911271 
L 198.301585 -37.954169 
L 197.664335 -37.999589 
L 197.027084 -38.047696 
L 196.389833 -38.098648 
L 195.752582 -38.152595 
L 195.115331 -38.209672 
L 194.478081 -38.269996 
L 193.84083 -38.333668 
L 193.203579 -38.400765 
L 192.566328 -38.47134 
L 191.929078 -38.545419 
L 191.291827 -38.622997 
L 190.654576 -38.70404 
L 190.017325 -38.788477 
L 189.380075 -38.876204 
L 188.742824 -38.967075 
L 188.105573 -39.060909 
L 187.468322 -39.157478 
L 186.831071 -39.256514 
L 186.193821 -39.357706 
L 185.55657 -39.460696 
L 184.919319 -39.565085 
L 184.282068 -39.670426 
L 183.644818 -39.776232 
L 183.007567 -39.881975 
L 182.370316 -39.987088 
L 181.733065 -40.090969 
L 181.095815 -40.192986 
L 180.458564 -40.29248 
L 179.821313 -40.388773 
L 179.184062 -40.481172 
L 178.546811 -40.568978 
L 177.909561 -40.651492 
L 177.27231 -40.728027 
L 176.635059 -40.79791 
L 175.997808 -40.860499 
L 175.360558 -40.915184 
L 174.723307 -40.961401 
L 174.086056 -40.998639 
L 173.448805 -41.026448 
L 172.811555 -41.044447 
L 172.174304 -41.052327 
L 171.537053 -41.049862 
L 170.899802 -41.036908 
L 170.262551 -41.01341 
L 169.625301 -40.979402 
L 168.98805 -40.935006 
L 168.350799 -40.880432 
L 167.713548 -40.815975 
z
" style="stroke: #447f37; stroke-opacity: 0.5"/>
    </defs>
    <g clip-path="url(#p1af08124cc)">
     <use xlink:href="#m43def07922" x="0" y="144" style="fill: #447f37; fill-opacity: 0.5; stroke: #447f37; stroke-opacity: 0.5"/>
    </g>
   </g>
   <g id="matplotlib.axis_3">
    <g id="xtick_4">
     <g id="line2d_16">
      <g>
       <use xlink:href="#m0b98c5d847" x="167.713548" y="108" style="stroke: #000000; stroke-width: 0.8"/>
      </g>
     </g>
    </g>
    <g id="xtick_5">
     <g id="line2d_17">
      <g>
       <use xlink:href="#m0b98c5d847" x="231.12" y="108" style="stroke: #000000; stroke-width: 0.8"/>
      </g>
     </g>
     <g id="text_11">
      <text style="font-size: 14px; font-family: 'DejaVu Sans', 'Bitstream Vera Sans', 'Computer Modern Sans Serif', 'Lucida Grande', 'Verdana', 'Geneva', 'Lucid', 'Arial', 'Helvetica', 'Avant Garde', sans-serif; text-anchor: middle" x="231.12" y="122.137812" transform="rotate(-0 231.12 122.137812)">0.5</text>
     </g>
    </g>
    <g id="xtick_6">
     <g id="line2d_18">
      <g>
       <use xlink:href="#m0b98c5d847" x="294.526452" y="108" style="stroke: #000000; stroke-width: 0.8"/>
      </g>
     </g>
     <g id="text_12">
      <text style="font-size: 14px; font-family: 'DejaVu Sans', 'Bitstream Vera Sans', 'Computer Modern Sans Serif', 'Lucida Grande', 'Verdana', 'Geneva', 'Lucid', 'Arial', 'Helvetica', 'Avant Garde', sans-serif; text-anchor: middle" x="294.526452" y="122.137812" transform="rotate(-0 294.526452 122.137812)">1</text>
     </g>
    </g>
    <g id="text_13">
     <text style="font-size: 14px; font-family: 'DejaVu Sans', 'Bitstream Vera Sans', 'Computer Modern Sans Serif', 'Lucida Grande', 'Verdana', 'Geneva', 'Lucid', 'Arial', 'Helvetica', 'Avant Garde', sans-serif; text-anchor: middle" x="231.12" y="139.687187" transform="rotate(-0 231.12 139.687187)">Fidelity</text>
    </g>
   </g>
   <g id="matplotlib.axis_4">
    <g id="ytick_5">
     <g id="line2d_19">
      <g>
       <use xlink:href="#m99333eca68" x="167.713548" y="108" style="stroke: #000000; stroke-width: 0.8"/>
      </g>
     </g>
     <g id="line2d_20">
      <g>
       <use xlink:href="#mfc562b3fe2" x="294.526452" y="108" style="stroke: #000000; stroke-width: 0.8"/>
      </g>
     </g>
    </g>
    <g id="ytick_6">
     <g id="line2d_21">
      <g>
       <use xlink:href="#m99333eca68" x="167.713548" y="74.4" style="stroke: #000000; stroke-width: 0.8"/>
      </g>
     </g>
     <g id="line2d_22">
      <g>
       <use xlink:href="#mfc562b3fe2" x="294.526452" y="74.4" style="stroke: #000000; stroke-width: 0.8"/>
      </g>
     </g>
    </g>
    <g id="ytick_7">
     <g id="line2d_23">
      <g>
       <use xlink:href="#m99333eca68" x="167.713548" y="40.8" style="stroke: #000000; stroke-width: 0.8"/>
      </g>
     </g>
     <g id="line2d_24">
      <g>
       <use xlink:href="#mfc562b3fe2" x="294.526452" y="40.8" style="stroke: #000000; stroke-width: 0.8"/>
      </g>
     </g>
    </g>
    <g id="ytick_8">
     <g id="line2d_25">
      <g>
       <use xlink:href="#m99333eca68" x="167.713548" y="7.2" style="stroke: #000000; stroke-width: 0.8"/>
      </g>
     </g>
     <g id="line2d_26">
      <g>
       <use xlink:href="#mfc562b3fe2" x="294.526452" y="7.2" style="stroke: #000000; stroke-width: 0.8"/>
      </g>
     </g>
    </g>
   </g>
   <g id="line2d_27">
    <path d="M 167.713548 103.537705 
L 170.899802 103.302595 
L 174.086056 103.323395 
L 177.27231 103.574653 
L 181.733065 104.18071 
L 191.291827 105.564312 
L 196.389833 106.05003 
L 202.762341 106.423867 
L 212.321102 106.737863 
L 224.428867 106.907171 
L 238.448384 106.888232 
L 246.732644 106.670116 
L 252.467901 106.312678 
L 256.291405 105.874733 
L 259.477659 105.278793 
L 262.026662 104.550509 
L 263.938415 103.78427 
L 265.850167 102.756268 
L 267.761919 101.382415 
L 269.036421 100.225634 
L 270.310922 98.838559 
L 271.585424 97.187878 
L 272.859925 95.241311 
L 274.134427 92.97009 
L 275.408929 90.351996 
L 277.320681 85.751433 
L 279.232433 80.366588 
L 281.144185 74.312773 
L 288.153944 51.207611 
L 289.428445 47.96442 
L 290.702947 45.361551 
L 291.977449 43.511237 
L 292.614699 42.895726 
L 293.25195 42.497092 
L 293.889201 42.320269 
L 294.526452 42.367738 
L 294.526452 42.367738 
" clip-path="url(#p1af08124cc)" style="fill: none; stroke-dasharray: 5.55,2.4; stroke-dashoffset: 0; stroke: #447f37; stroke-width: 1.5"/>
   </g>
   <g id="patch_8">
    <path d="M 167.713548 108 
L 167.713548 7.2 
" style="fill: none; stroke: #000000; stroke-width: 0.8; stroke-linejoin: miter; stroke-linecap: square"/>
   </g>
   <g id="patch_9">
    <path d="M 294.526452 108 
L 294.526452 7.2 
" style="fill: none; stroke: #000000; stroke-width: 0.8; stroke-linejoin: miter; stroke-linecap: square"/>
   </g>
   <g id="patch_10">
    <path d="M 167.713548 108 
L 294.526452 108 
" style="fill: none; stroke: #000000; stroke-width: 0.8; stroke-linejoin: miter; stroke-linecap: square"/>
   </g>
   <g id="patch_11">
    <path d="M 167.713548 7.2 
L 294.526452 7.2 
" style="fill: none; stroke: #000000; stroke-width: 0.8; stroke-linejoin: miter; stroke-linecap: square"/>
   </g>
   <g id="legend_2">
    <g id="line2d_28">
     <path d="M 179.74 27.668438 
L 193.74 27.668438 
L 207.74 27.668438 
" style="fill: none; stroke-dasharray: 5.55,2.4; stroke-dashoffset: 0; stroke: #447f37; stroke-width: 1.5"/>
    </g>
    <g id="text_14">
     <!-- $\tilde\mathcal{V}=G_{\mathcal{U}}(\mathcal{U})$ -->
     <g transform="translate(214.74 32.568438)">
      <text>
       <tspan x="8.982998" y="-3.125" style="font-size: 14px; font-family: 'DejaVu Sans'">̃</tspan>
       <tspan x="11.659531" y="-0.84375" style="font-size: 14px; font-family: 'DejaVu Sans'">=</tspan>
       <tspan x="45.355576" y="-0.84375" style="font-size: 14px; font-family: 'DejaVu Sans'">(</tspan>
       <tspan x="62.255478" y="-0.84375" style="font-size: 14px; font-family: 'DejaVu Sans'">)</tspan>
       <tspan x="0" y="-0.84375" style="font-style: italic; font-size: 14px; font-family: 'STIXNonUnicode'"></tspan>
       <tspan x="50.81749" y="-0.84375" style="font-style: italic; font-size: 14px; font-family: 'STIXNonUnicode'"></tspan>
       <tspan x="26.117538" y="-0.84375" style="font-style: oblique; font-size: 14px; font-family: 'DejaVu Sans'">G</tspan>
       <tspan x="36.966171" y="1.453125" style="font-style: italic; font-size: 9.8px; font-family: 'STIXNonUnicode'"></tspan>
      </text>
     </g>
    </g>
   </g>
  </g>
  <g id="axes_3">
   <g id="patch_12">
    <path d="M 300.867097 108 
L 427.68 108 
L 427.68 7.2 
L 300.867097 7.2 
z
" style="fill: #ffffff"/>
   </g>
   <g id="FillBetweenPolyCollection_2">
    <defs>
     <path id="m645e7ca283" d="M 300.867097 -116.273999 
L 300.867097 -95.949279 
L 301.504348 -95.905946 
L 302.141598 -95.614409 
L 302.778849 -95.078698 
L 303.4161 -94.305791 
L 304.053351 -93.305449 
L 304.690601 -92.089991 
L 305.327852 -90.674025 
L 305.965103 -89.074118 
L 306.602354 -87.30845 
L 307.239604 -85.396442 
L 307.876855 -83.35838 
L 308.514106 -81.215057 
L 309.151357 -78.987459 
L 309.788608 -76.696503 
L 310.425858 -74.362878 
L 311.063109 -72.006975 
L 311.70036 -69.648913 
L 312.337611 -67.308582 
L 312.974861 -65.005589 
L 313.612112 -62.758962 
L 314.249363 -60.586555 
L 314.886614 -58.504238 
L 315.523864 -56.525098 
L 316.161115 -54.658892 
L 316.798366 -52.911874 
L 317.435617 -51.286983 
L 318.072868 -49.784273 
L 318.710118 -48.401463 
L 319.347369 -47.134507 
L 319.98462 -45.978115 
L 320.621871 -44.926207 
L 321.259121 -43.972273 
L 321.896372 -43.109651 
L 322.533623 -42.331729 
L 323.170874 -41.632076 
L 323.808124 -41.00452 
L 324.445375 -40.443193 
L 325.082626 -39.942534 
L 325.719877 -39.497296 
L 326.357128 -39.102528 
L 326.994378 -38.753568 
L 327.631629 -38.446036 
L 328.26888 -38.175829 
L 328.906131 -37.939116 
L 329.543381 -37.732338 
L 330.180632 -37.552208 
L 330.817883 -37.395706 
L 331.455134 -37.260075 
L 332.092385 -37.142812 
L 332.729635 -37.041661 
L 333.366886 -36.9546 
L 334.004137 -36.879824 
L 334.641388 -36.815735 
L 335.278638 -36.760923 
L 335.915889 -36.71415 
L 336.55314 -36.674333 
L 337.190391 -36.640528 
L 337.827641 -36.611916 
L 338.464892 -36.587786 
L 339.102143 -36.567523 
L 339.739394 -36.550595 
L 340.376645 -36.536545 
L 341.013895 -36.524973 
L 341.651146 -36.515539 
L 342.288397 -36.507945 
L 342.925648 -36.501934 
L 343.562898 -36.497284 
L 344.200149 -36.493804 
L 344.8374 -36.491328 
L 345.474651 -36.489712 
L 346.111901 -36.488836 
L 346.749152 -36.488596 
L 347.386403 -36.488904 
L 348.023654 -36.489687 
L 348.660905 -36.490888 
L 349.298155 -36.492458 
L 349.935406 -36.494361 
L 350.572657 -36.496569 
L 351.209908 -36.499063 
L 351.847158 -36.501829 
L 352.484409 -36.504859 
L 353.12166 -36.50815 
L 353.758911 -36.511702 
L 354.396161 -36.515514 
L 355.033412 -36.519588 
L 355.670663 -36.523926 
L 356.307914 -36.528527 
L 356.945165 -36.533391 
L 357.582415 -36.538512 
L 358.219666 -36.543884 
L 358.856917 -36.549497 
L 359.494168 -36.555334 
L 360.131418 -36.561378 
L 360.768669 -36.567605 
L 361.40592 -36.573984 
L 362.043171 -36.580482 
L 362.680421 -36.58706 
L 363.317672 -36.59367 
L 363.954923 -36.600263 
L 364.592174 -36.606784 
L 365.229425 -36.613171 
L 365.866675 -36.619361 
L 366.503926 -36.62529 
L 367.141177 -36.630889 
L 367.778428 -36.636093 
L 368.415678 -36.640839 
L 369.052929 -36.64507 
L 369.69018 -36.648735 
L 370.327431 -36.651792 
L 370.964681 -36.65421 
L 371.601932 -36.655971 
L 372.239183 -36.657072 
L 372.876434 -36.657524 
L 373.513685 -36.657353 
L 374.150935 -36.6566 
L 374.788186 -36.655322 
L 375.425437 -36.653587 
L 376.062688 -36.651477 
L 376.699938 -36.649082 
L 377.337189 -36.646502 
L 377.97444 -36.64384 
L 378.611691 -36.641206 
L 379.248941 -36.638709 
L 379.886192 -36.636456 
L 380.523443 -36.634555 
L 381.160694 -36.633107 
L 381.797945 -36.632211 
L 382.435195 -36.631956 
L 383.072446 -36.632427 
L 383.709697 -36.633703 
L 384.346948 -36.635856 
L 384.984198 -36.638951 
L 385.621449 -36.64305 
L 386.2587 -36.64821 
L 386.895951 -36.654485 
L 387.533201 -36.661928 
L 388.170452 -36.670593 
L 388.807703 -36.680532 
L 389.444954 -36.691805 
L 390.082205 -36.704471 
L 390.719455 -36.7186 
L 391.356706 -36.734266 
L 391.993957 -36.751556 
L 392.631208 -36.770567 
L 393.268458 -36.791411 
L 393.905709 -36.814217 
L 394.54296 -36.839132 
L 395.180211 -36.866327 
L 395.817462 -36.895997 
L 396.454712 -36.928363 
L 397.091963 -36.96368 
L 397.729214 -37.002235 
L 398.366465 -37.044351 
L 399.003715 -37.090389 
L 399.640966 -37.14075 
L 400.278217 -37.195877 
L 400.915468 -37.256253 
L 401.552718 -37.322402 
L 402.189969 -37.394885 
L 402.82722 -37.474303 
L 403.464471 -37.561284 
L 404.101722 -37.656484 
L 404.738972 -37.760577 
L 405.376223 -37.874244 
L 406.013474 -37.998169 
L 406.650725 -38.133016 
L 407.287975 -38.279424 
L 407.925226 -38.437987 
L 408.562477 -38.609233 
L 409.199728 -38.79361 
L 409.836978 -38.991462 
L 410.474229 -39.203007 
L 411.11148 -39.428315 
L 411.748731 -39.667284 
L 412.385982 -39.919617 
L 413.023232 -40.184799 
L 413.660483 -40.462078 
L 414.297734 -40.750445 
L 414.934985 -41.048619 
L 415.572235 -41.355036 
L 416.209486 -41.667847 
L 416.846737 -41.984914 
L 417.483988 -42.303825 
L 418.121238 -42.621906 
L 418.758489 -42.93625 
L 419.39574 -43.243752 
L 420.032991 -43.541153 
L 420.670242 -43.825094 
L 421.307492 -44.092175 
L 421.944743 -44.339024 
L 422.581994 -44.562366 
L 423.219245 -44.759098 
L 423.856495 -44.926362 
L 424.493746 -45.061615 
L 425.130997 -45.162693 
L 425.768248 -45.227867 
L 426.405498 -45.255894 
L 427.042749 -45.246047 
L 427.68 -45.198144 
L 427.68 -51.420423 
L 427.68 -51.420423 
L 427.042749 -51.474756 
L 426.405498 -51.486764 
L 425.768248 -51.456583 
L 425.130997 -51.384796 
L 424.493746 -51.272411 
L 423.856495 -51.120841 
L 423.219245 -50.931872 
L 422.581994 -50.707615 
L 421.944743 -50.45047 
L 421.307492 -50.163072 
L 420.670242 -49.848245 
L 420.032991 -49.508947 
L 419.39574 -49.148222 
L 418.758489 -48.769155 
L 418.121238 -48.374821 
L 417.483988 -47.968251 
L 416.846737 -47.552386 
L 416.209486 -47.130053 
L 415.572235 -46.703932 
L 414.934985 -46.276534 
L 414.297734 -45.850185 
L 413.660483 -45.427012 
L 413.023232 -45.008933 
L 412.385982 -44.597658 
L 411.748731 -44.194684 
L 411.11148 -43.8013 
L 410.474229 -43.418598 
L 409.836978 -43.047475 
L 409.199728 -42.688651 
L 408.562477 -42.342678 
L 407.925226 -42.009954 
L 407.287975 -41.690741 
L 406.650725 -41.385175 
L 406.013474 -41.093285 
L 405.376223 -40.815002 
L 404.738972 -40.550181 
L 404.101722 -40.298604 
L 403.464471 -40.059997 
L 402.82722 -39.834044 
L 402.189969 -39.620388 
L 401.552718 -39.418646 
L 400.915468 -39.228417 
L 400.278217 -39.049283 
L 399.640966 -38.880821 
L 399.003715 -38.722602 
L 398.366465 -38.574201 
L 397.729214 -38.435193 
L 397.091963 -38.305164 
L 396.454712 -38.183705 
L 395.817462 -38.070419 
L 395.180211 -37.96492 
L 394.54296 -37.866836 
L 393.905709 -37.775805 
L 393.268458 -37.691479 
L 392.631208 -37.613524 
L 391.993957 -37.541617 
L 391.356706 -37.475447 
L 390.719455 -37.414715 
L 390.082205 -37.359132 
L 389.444954 -37.308419 
L 388.807703 -37.262304 
L 388.170452 -37.220526 
L 387.533201 -37.182828 
L 386.895951 -37.14896 
L 386.2587 -37.11868 
L 385.621449 -37.091747 
L 384.984198 -37.06793 
L 384.346948 -37.046999 
L 383.709697 -37.028732 
L 383.072446 -37.01291 
L 382.435195 -36.999321 
L 381.797945 -36.987758 
L 381.160694 -36.978021 
L 380.523443 -36.969915 
L 379.886192 -36.963255 
L 379.248941 -36.957863 
L 378.611691 -36.95357 
L 377.97444 -36.950217 
L 377.337189 -36.947656 
L 376.699938 -36.945748 
L 376.062688 -36.944369 
L 375.425437 -36.943405 
L 374.788186 -36.942758 
L 374.150935 -36.94234 
L 373.513685 -36.942078 
L 372.876434 -36.941913 
L 372.239183 -36.941796 
L 371.601932 -36.941693 
L 370.964681 -36.941579 
L 370.327431 -36.941442 
L 369.69018 -36.941275 
L 369.052929 -36.941084 
L 368.415678 -36.940877 
L 367.778428 -36.940671 
L 367.141177 -36.940486 
L 366.503926 -36.940344 
L 365.866675 -36.94027 
L 365.229425 -36.940288 
L 364.592174 -36.940425 
L 363.954923 -36.940703 
L 363.317672 -36.941145 
L 362.680421 -36.941773 
L 362.043171 -36.942603 
L 361.40592 -36.943652 
L 360.768669 -36.944934 
L 360.131418 -36.946461 
L 359.494168 -36.948243 
L 358.856917 -36.950289 
L 358.219666 -36.95261 
L 357.582415 -36.955216 
L 356.945165 -36.958117 
L 356.307914 -36.961328 
L 355.670663 -36.964864 
L 355.033412 -36.968746 
L 354.396161 -36.972997 
L 353.758911 -36.977648 
L 353.12166 -36.982733 
L 352.484409 -36.988293 
L 351.847158 -36.994379 
L 351.209908 -37.001045 
L 350.572657 -37.008356 
L 349.935406 -37.016385 
L 349.298155 -37.025216 
L 348.660905 -37.034942 
L 348.023654 -37.045667 
L 347.386403 -37.05751 
L 346.749152 -37.070602 
L 346.111901 -37.085088 
L 345.474651 -37.101131 
L 344.8374 -37.118911 
L 344.200149 -37.13863 
L 343.562898 -37.160511 
L 342.925648 -37.1848 
L 342.288397 -37.211772 
L 341.651146 -37.241731 
L 341.013895 -37.275016 
L 340.376645 -37.312004 
L 339.739394 -37.353113 
L 339.102143 -37.398811 
L 338.464892 -37.449621 
L 337.827641 -37.50613 
L 337.190391 -37.568994 
L 336.55314 -37.638953 
L 335.915889 -37.716841 
L 335.278638 -37.803598 
L 334.641388 -37.900286 
L 334.004137 -38.008106 
L 333.366886 -38.128415 
L 332.729635 -38.26275 
L 332.092385 -38.412843 
L 331.455134 -38.580653 
L 330.817883 -38.768383 
L 330.180632 -38.978514 
L 329.543381 -39.213827 
L 328.906131 -39.47743 
L 328.26888 -39.772787 
L 327.631629 -40.103739 
L 326.994378 -40.474523 
L 326.357128 -40.889782 
L 325.719877 -41.354566 
L 325.082626 -41.874317 
L 324.445375 -42.454839 
L 323.808124 -43.102246 
L 323.170874 -43.822893 
L 322.533623 -44.623289 
L 321.896372 -45.509998 
L 321.259121 -46.489534 
L 320.621871 -47.56826 
L 319.98462 -48.7523 
L 319.347369 -50.047478 
L 318.710118 -51.459278 
L 318.072868 -52.992848 
L 317.435617 -54.653034 
L 316.798366 -56.444448 
L 316.161115 -58.37153 
L 315.523864 -60.438565 
L 314.886614 -62.649556 
L 314.249363 -65.007851 
L 313.612112 -67.515424 
L 312.974861 -70.171829 
L 312.337611 -72.97297 
L 311.70036 -75.909962 
L 311.063109 -78.96834 
L 310.425858 -82.127725 
L 309.788608 -85.361927 
L 309.151357 -88.639356 
L 308.514106 -91.923638 
L 307.876855 -95.17437 
L 307.239604 -98.348008 
L 306.602354 -101.398867 
L 305.965103 -104.280238 
L 305.327852 -106.945598 
L 304.690601 -109.349898 
L 304.053351 -111.450867 
L 303.4161 -113.210295 
L 302.778849 -114.595241 
L 302.141598 -115.579105 
L 301.504348 -116.142518 
L 300.867097 -116.273999 
z
" style="stroke: #5986c0; stroke-opacity: 0.5"/>
    </defs>
    <g clip-path="url(#pfd69975855)">
     <use xlink:href="#m645e7ca283" x="0" y="144" style="fill: #5986c0; fill-opacity: 0.5; stroke: #5986c0; stroke-opacity: 0.5"/>
    </g>
   </g>
   <g id="matplotlib.axis_5">
    <g id="xtick_7">
     <g id="line2d_29">
      <g>
       <use xlink:href="#m0b98c5d847" x="300.867097" y="108" style="stroke: #000000; stroke-width: 0.8"/>
      </g>
     </g>
    </g>
    <g id="xtick_8">
     <g id="line2d_30">
      <g>
       <use xlink:href="#m0b98c5d847" x="364.273548" y="108" style="stroke: #000000; stroke-width: 0.8"/>
      </g>
     </g>
     <g id="text_15">
      <text style="font-size: 14px; font-family: 'DejaVu Sans', 'Bitstream Vera Sans', 'Computer Modern Sans Serif', 'Lucida Grande', 'Verdana', 'Geneva', 'Lucid', 'Arial', 'Helvetica', 'Avant Garde', sans-serif; text-anchor: middle" x="364.273548" y="122.137812" transform="rotate(-0 364.273548 122.137812)">0.5</text>
     </g>
    </g>
    <g id="xtick_9">
     <g id="line2d_31">
      <g>
       <use xlink:href="#m0b98c5d847" x="427.68" y="108" style="stroke: #000000; stroke-width: 0.8"/>
      </g>
     </g>
     <g id="text_16">
      <text style="font-size: 14px; font-family: 'DejaVu Sans', 'Bitstream Vera Sans', 'Computer Modern Sans Serif', 'Lucida Grande', 'Verdana', 'Geneva', 'Lucid', 'Arial', 'Helvetica', 'Avant Garde', sans-serif; text-anchor: middle" x="427.68" y="122.137812" transform="rotate(-0 427.68 122.137812)">1</text>
     </g>
    </g>
    <g id="text_17">
     <text style="font-size: 14px; font-family: 'DejaVu Sans', 'Bitstream Vera Sans', 'Computer Modern Sans Serif', 'Lucida Grande', 'Verdana', 'Geneva', 'Lucid', 'Arial', 'Helvetica', 'Avant Garde', sans-serif; text-anchor: middle" x="364.273548" y="139.687187" transform="rotate(-0 364.273548 139.687187)">Fidelity</text>
    </g>
   </g>
   <g id="matplotlib.axis_6">
    <g id="ytick_9">
     <g id="line2d_32">
      <g>
       <use xlink:href="#m99333eca68" x="300.867097" y="108" style="stroke: #000000; stroke-width: 0.8"/>
      </g>
     </g>
     <g id="line2d_33">
      <g>
       <use xlink:href="#mfc562b3fe2" x="427.68" y="108" style="stroke: #000000; stroke-width: 0.8"/>
      </g>
     </g>
    </g>
    <g id="ytick_10">
     <g id="line2d_34">
      <g>
       <use xlink:href="#m99333eca68" x="300.867097" y="74.4" style="stroke: #000000; stroke-width: 0.8"/>
      </g>
     </g>
     <g id="line2d_35">
      <g>
       <use xlink:href="#mfc562b3fe2" x="427.68" y="74.4" style="stroke: #000000; stroke-width: 0.8"/>
      </g>
     </g>
    </g>
    <g id="ytick_11">
     <g id="line2d_36">
      <g>
       <use xlink:href="#m99333eca68" x="300.867097" y="40.8" style="stroke: #000000; stroke-width: 0.8"/>
      </g>
     </g>
     <g id="line2d_37">
      <g>
       <use xlink:href="#mfc562b3fe2" x="427.68" y="40.8" style="stroke: #000000; stroke-width: 0.8"/>
      </g>
     </g>
    </g>
    <g id="ytick_12">
     <g id="line2d_38">
      <g>
       <use xlink:href="#m99333eca68" x="300.867097" y="7.2" style="stroke: #000000; stroke-width: 0.8"/>
      </g>
     </g>
     <g id="line2d_39">
      <g>
       <use xlink:href="#mfc562b3fe2" x="427.68" y="7.2" style="stroke: #000000; stroke-width: 0.8"/>
      </g>
     </g>
    </g>
   </g>
   <g id="line2d_40">
    <path d="M 300.867097 37.888361 
L 301.504348 37.975768 
L 302.141598 38.403243 
L 302.778849 39.16303 
L 303.4161 40.241957 
L 304.053351 41.621842 
L 305.327852 45.190189 
L 306.602354 49.646341 
L 308.514106 57.430652 
L 312.974861 76.411291 
L 314.886614 83.423103 
L 316.161115 87.484789 
L 317.435617 91.029991 
L 318.710118 94.069629 
L 319.98462 96.634793 
L 321.259121 98.769096 
L 322.533623 100.522491 
L 323.808124 101.946617 
L 325.082626 103.091574 
L 326.357128 104.003845 
L 328.26888 105.025692 
L 330.180632 105.734639 
L 332.092385 106.222172 
L 334.641388 106.64199 
L 337.827641 106.940977 
L 342.925648 107.156633 
L 351.847158 107.251896 
L 377.337189 107.202921 
L 386.895951 107.098277 
L 392.631208 106.807955 
L 397.091963 106.365578 
L 400.915468 105.757665 
L 404.101722 105.022456 
L 406.650725 104.240904 
L 409.199728 103.25887 
L 411.748731 102.069016 
L 414.934985 100.337424 
L 420.670242 97.163331 
L 422.581994 96.36501 
L 424.493746 95.832987 
L 425.768248 95.657775 
L 427.042749 95.639598 
L 427.68 95.690717 
L 427.68 95.690717 
" clip-path="url(#pfd69975855)" style="fill: none; stroke-dasharray: 5.55,2.4; stroke-dashoffset: 0; stroke: #5986c0; stroke-width: 1.5"/>
   </g>
   <g id="patch_13">
    <path d="M 300.867097 108 
L 300.867097 7.2 
" style="fill: none; stroke: #000000; stroke-width: 0.8; stroke-linejoin: miter; stroke-linecap: square"/>
   </g>
   <g id="patch_14">
    <path d="M 427.68 108 
L 427.68 7.2 
" style="fill: none; stroke: #000000; stroke-width: 0.8; stroke-linejoin: miter; stroke-linecap: square"/>
   </g>
   <g id="patch_15">
    <path d="M 300.867097 108 
L 427.68 108 
" style="fill: none; stroke: #000000; stroke-width: 0.8; stroke-linejoin: miter; stroke-linecap: square"/>
   </g>
   <g id="patch_16">
    <path d="M 300.867097 7.2 
L 427.68 7.2 
" style="fill: none; stroke: #000000; stroke-width: 0.8; stroke-linejoin: miter; stroke-linecap: square"/>
   </g>
   <g id="legend_3">
    <g id="line2d_41">
     <path d="M 315.483548 25.537813 
L 329.483548 25.537813 
L 343.483548 25.537813 
" style="fill: none; stroke-dasharray: 5.55,2.4; stroke-dashoffset: 0; stroke: #5986c0; stroke-width: 1.5"/>
    </g>
    <g id="text_18">
     <!-- $\bar\mathcal{V}=\mathcal{U} + \mathcal{E}$ -->
     <g transform="translate(350.483548 30.437813)">
      <text>
       <tspan x="8.779873" y="-2.5625" style="font-size: 14px; font-family: 'DejaVu Sans'">̄</tspan>
       <tspan x="11.659531" y="-0.75" style="font-size: 14px; font-family: 'DejaVu Sans'">=</tspan>
       <tspan x="40.283066" y="-0.75" style="font-size: 14px; font-family: 'DejaVu Sans'">+</tspan>
       <tspan x="0" y="-0.75" style="font-style: italic; font-size: 14px; font-family: 'STIXNonUnicode'"></tspan>
       <tspan x="26.117538" y="-0.75" style="font-style: italic; font-size: 14px; font-family: 'STIXNonUnicode'"></tspan>
       <tspan x="54.741074" y="-0.75" style="font-style: italic; font-size: 14px; font-family: 'STIXNonUnicode'"></tspan>
      </text>
     </g>
    </g>
   </g>
  </g>
 </g>
 <defs>
  <clipPath id="peedf218ee8">
   <rect x="34.56" y="7.2" width="126.812903" height="100.8"/>
  </clipPath>
  <clipPath id="p1af08124cc">
   <rect x="167.713548" y="7.2" width="126.812903" height="100.8"/>
  </clipPath>
  <clipPath id="pfd69975855">
   <rect x="300.867097" y="7.2" width="126.812903" height="100.8"/>
  </clipPath>
 </defs>
</svg>
